<?xml version="1.0" encoding="utf-8"?>
<!-- Generator: Adobe Illustrator 19.0.0, SVG Export Plug-In . SVG Version: 6.00 Build 0)  -->
<svg version="1.1" id="Layer_1" xmlns="http://www.w3.org/2000/svg" xmlns:xlink="http://www.w3.org/1999/xlink" x="0px" y="0px"
	 viewBox="0 0 389.7 389.3" style="enable-background:new 0 0 389.7 389.3;" xml:space="preserve">
<style type="text/css">
	.st0{fill:#5FC2FF;}
	.st1{fill:#4A2A93;}
	.st2{fill:url(#XMLID_54_);}
	.st3{fill:#4A61D1;}
	.st4{fill:url(#XMLID_55_);}
	.st5{fill:#FFF039;}
</style>
<g id="XMLID_111_">
	<polygon id="XMLID_125_" class="st0" points="104.2,206.7 104.2,206.7 96.6,174.3 	"/>
	<path id="XMLID_128_" class="st1" d="M389.7,195.1c0-51.2-19.7-97.8-52-132.5l-51.3,52.4c8,18.8,10.5,40.4,5.5,62.2l-0.9,4l0.9-3.7
		l-0.9,2.2l-6.6,27.2h1.3h-1.3l-9.3,40.8l9.3-40.8h-0.1l-40.4,175.6C327.9,360.4,389.7,285.7,389.7,195.1z"/>
	<linearGradient id="XMLID_54_" gradientUnits="userSpaceOnUse" x1="194.2751" y1="113.3331" x2="194.2751" y2="209.0962">
		<stop  offset="0" style="stop-color:#FFF039"/>
		<stop  offset="1" style="stop-color:#FFC200"/>
	</linearGradient>
	<path id="XMLID_129_" class="st2" d="M102.4,114.1c-0.1,0.3-0.2,0.5-0.3,0.8l92.2,94.2l92.2-94.2c-0.2-0.5-0.4-1-0.7-1.5
		L102.4,114.1z"/>
	<polygon id="XMLID_130_" class="st0" points="284.5,206.7 291.1,178 284.4,206.7 	"/>
	<path id="XMLID_131_" class="st3" d="M102,114.8c-8.1,18.9-10.5,39.1-5.4,61l7.5,30.9h180.3l6.7-27.2l0.9-3.2
		c5-21.8,2.5-43-5.5-61.8l-92.2,94.4L102,114.8z"/>
	<linearGradient id="XMLID_55_" gradientUnits="userSpaceOnUse" x1="194.2961" y1="206.6622" x2="194.2961" y2="389.3375">
		<stop  offset="0" style="stop-color:#5FC2FF"/>
		<stop  offset="1" style="stop-color:#4A61D1"/>
	</linearGradient>
	<path id="XMLID_134_" class="st4" d="M104.2,206.7l9.5,40.8L104.2,206.7L104.2,206.7L144.5,382c16,4.3,32.9,7.3,50.2,7.3
		c17.1,0,33.6-3.3,49.4-7.5l40.4-175.2H104.2z M175.7,329.7v-62h41v62H175.7z"/>
	<path id="XMLID_135_" class="st5" d="M102.4,114.1l183.5-0.7c0.2,0.5,0.4,1,0.7,1.5l51.3-52.4C302.1,24.1,251.2,0,194.7,0
		C137.9,0,86.9,24.2,51.2,62.9l50.8,51.9C102.1,114.6,102.2,114.3,102.4,114.1z"/>
	<path id="XMLID_136_" class="st1" d="M103.4,206.7h0.7l-7.5-30.9c-5.1-21.9-2.7-42.8,5.4-61.7L51.2,62.5
		c-32,34.7-51.6,81.3-51.6,132.3c0,90.4,61.4,164.9,144.8,187.1l-40.3-175.3H103.4z"/>
	<rect id="XMLID_137_" x="175.7" y="267.7" class="st3" width="41" height="62"/>
</g>
</svg>
