<?xml version="1.0" standalone="no"?>
<!DOCTYPE svg PUBLIC "-//W3C//DTD SVG 20010904//EN"
 "http://www.w3.org/TR/2001/REC-SVG-20010904/DTD/svg10.dtd">
<svg version="1.0" xmlns="http://www.w3.org/2000/svg"
 width="400.000000pt" height="400.000000pt" viewBox="0 0 400.000000 400.000000"
 preserveAspectRatio="xMidYMid meet">
<metadata>
Created by potrace 1.11, written by Peter Selinger 2001-2013
</metadata>
<g transform="translate(0.000000,400.000000) scale(0.100000,-0.100000)"
fill="#000000" stroke="none">
<path d="M465 3283 c-501 -600 -606 -1446 -265 -2151 99 -205 203 -353 365
-521 316 -326 712 -528 1165 -592 134 -19 448 -17 575 5 453 77 821 268 1130
587 162 168 266 316 365 521 308 638 255 1395 -138 1978 -74 111 -178 240
-192 240 -4 0 -338 -336 -741 -747 l-734 -746 -288 294 c-159 162 -487 498
-730 747 -242 248 -444 452 -448 452 -4 0 -33 -30 -64 -67z m2451 -1455 c-3
-13 -31 -133 -63 -268 l-56 -245 -799 3 -798 2 -5 23 c-3 12 -32 131 -64 265
l-58 242 925 0 924 0 -6 -22z"/>
</g>
</svg>
