<?xml version="1.0" encoding="utf-8"?>
<!-- Generator: Adobe Illustrator 19.0.0, SVG Export Plug-In . SVG Version: 6.00 Build 0)  -->
<svg version="1.1" id="Layer_1" xmlns="http://www.w3.org/2000/svg" xmlns:xlink="http://www.w3.org/1999/xlink" x="0px" y="0px"
	 viewBox="0 0 750 750" style="enable-background:new 0 0 750 750;" xml:space="preserve">
<style type="text/css">
	.st0{fill:url(#XMLID_43_);stroke:#FFFFFF;stroke-width:8;stroke-miterlimit:10;}
	.st1{fill:#2C2C2C;}
	.st2{fill:none;stroke:#FFFFFF;stroke-width:8;stroke-miterlimit:10;}
	.st3{fill:#2C2C2C;stroke:#FFFFFF;stroke-width:8;stroke-miterlimit:10;}
	.st4{fill:none;stroke:#FFFFFF;stroke-width:10;stroke-miterlimit:10;}
	.st5{fill:#FFC200;}
	.st6{fill:#FFFFFF;}
</style>
<linearGradient id="XMLID_43_" gradientUnits="userSpaceOnUse" x1="369.4" y1="86.4" x2="369.4" y2="662.8" gradientTransform="matrix(1 0 0 -1 0 750)">
	<stop  offset="0" style="stop-color:#5FC2FF"/>
	<stop  offset="1" style="stop-color:#4A61D1"/>
</linearGradient>
<circle id="XMLID_85_" class="st0" cx="369.4" cy="375.4" r="288.2"/>
<path id="XMLID_37_" class="st1" d="M623,512H116c0,0,81.2,151.6,247.7,151.6S623,512,623,512z"/>
<circle id="XMLID_41_" class="st2" cx="369.4" cy="375.4" r="288.2"/>
<path id="XMLID_35_" class="st2" d="M137.5,511.8c0-107.3,54.2-100.8,54.2-100.8h-0.2c0,0,54.2-6.5,54.2,100.7"/>
<rect id="XMLID_38_" x="205.3" y="324.4" class="st3" width="74.8" height="47.5"/>
<rect id="XMLID_5_" x="455" y="237" class="st1" width="118" height="273"/>
<path id="XMLID_1_" class="st3" d="M238.9,511.9c72.1,0,74.6-64.6,136.7-64.6s52.2,64.6,114.4,64.6c91,0,59.7-174-114.4-174
	S158.8,511.9,238.9,511.9z"/>
<line id="XMLID_3_" class="st2" x1="116" y1="512" x2="623" y2="512"/>
<path id="XMLID_6_" class="st3" d="M363.7,364.9c9.5-0.3,19.6,0.2,30.3,2"/>
<path id="XMLID_2_" class="st3" d="M363.7,364.9"/>
<path id="XMLID_4_" class="st3" d="M260.2,411.3c0,0,31.3-35.5,84.5-44.5"/>
<polygon id="XMLID_7_" class="st3" points="571.1,236.8 514.1,295.8 457,236.8 514.1,179.7 "/>
<line id="XMLID_9_" class="st2" x1="514" y1="296" x2="514" y2="394"/>
<line id="XMLID_8_" class="st2" x1="455" y1="353" x2="455" y2="237"/>
<line id="XMLID_11_" class="st2" x1="573" y1="237" x2="573" y2="510"/>
<line id="XMLID_12_" class="st2" x1="460" y1="237" x2="568" y2="237"/>
<line id="XMLID_13_" class="st2" x1="496" y1="277" x2="532" y2="277"/>
<line id="XMLID_14_" class="st2" x1="483" y1="264" x2="545" y2="264"/>
<line id="XMLID_15_" class="st2" x1="470" y1="250" x2="558" y2="250"/>
<line id="XMLID_18_" class="st2" x1="496" y1="196" x2="532" y2="196"/>
<line id="XMLID_17_" class="st2" x1="483" y1="209" x2="545" y2="209"/>
<line id="XMLID_16_" class="st2" x1="470" y1="223" x2="558" y2="223"/>
<line id="XMLID_19_" class="st2" x1="455" y1="282" x2="477" y2="282"/>
<line id="XMLID_20_" class="st2" x1="455" y1="309" x2="477" y2="309"/>
<line id="XMLID_21_" class="st2" x1="455" y1="335" x2="477" y2="335"/>
<line id="XMLID_24_" class="st2" x1="551" y1="282" x2="573" y2="282"/>
<line id="XMLID_23_" class="st2" x1="551" y1="309" x2="573" y2="309"/>
<line id="XMLID_22_" class="st2" x1="551" y1="335" x2="573" y2="335"/>
<line id="XMLID_27_" class="st2" x1="551" y1="335" x2="573" y2="335"/>
<line id="XMLID_26_" class="st2" x1="551" y1="362" x2="573" y2="362"/>
<line id="XMLID_25_" class="st2" x1="551" y1="388" x2="573" y2="388"/>
<line id="XMLID_30_" class="st2" x1="551" y1="389" x2="573" y2="389"/>
<line id="XMLID_29_" class="st2" x1="551" y1="416" x2="573" y2="416"/>
<line id="XMLID_28_" class="st2" x1="551" y1="442" x2="573" y2="442"/>
<line id="XMLID_33_" class="st2" x1="551" y1="442" x2="573" y2="442"/>
<line id="XMLID_32_" class="st2" x1="551" y1="469" x2="573" y2="469"/>
<line id="XMLID_31_" class="st2" x1="82" y1="389" x2="238" y2="389"/>
<path id="XMLID_34_" class="st2" d="M83.5,411.3c0,0,54.2-6.6,54.2,100.7"/>
<rect id="XMLID_10_" x="110.1" y="324.4" class="st3" width="74.8" height="47.5"/>
<line id="XMLID_39_" class="st4" x1="123" y1="345" x2="171" y2="345"/>
<line id="XMLID_40_" class="st4" x1="219" y1="345" x2="267" y2="345"/>
<path id="XMLID_36_" class="st2" d="M137.5,389.1"/>
<path class="st5" d="M248.8,174.7l-4.3,15.3c-1.1,3.8-4,6.8-7.8,8l-16.7,5.1c-0.8,0.2-0.7,1.4,0.1,1.5l16,3.3
	c4.1,0.8,7.5,3.9,8.7,7.9l4,12.9c0.2,0.8,1.3,0.7,1.5,0l3.4-12.7c1.1-4.1,4.4-7.3,8.6-8.3l17.1-3.9c0.8-0.2,0.8-1.3,0-1.6l-17.2-4.4
	c-4.1-1.1-7.4-4.3-8.4-8.5l-3.6-14.7C250.2,173.9,249.1,173.9,248.8,174.7z"/>
<path class="st5" d="M336.5,126.8l-2.6,9.4c-0.6,2.3-2.4,4.2-4.7,4.9l-10.2,3.1c-0.5,0.1-0.5,0.8,0,0.9l9.8,2
	c2.5,0.5,4.6,2.4,5.3,4.8l2.4,7.9c0.1,0.5,0.8,0.5,0.9,0l2.1-7.7c0.7-2.5,2.7-4.5,5.2-5l10.5-2.4c0.5-0.1,0.5-0.8,0-0.9l-10.5-2.7
	c-2.5-0.6-4.5-2.6-5.1-5.2l-2.2-9C337.3,126.3,336.6,126.3,336.5,126.8z"/>
<path class="st6" d="M268,137.6l-1.6,5.9c-0.4,1.5-1.5,2.6-3,3.1l-6.5,2c-0.3,0.1-0.3,0.5,0,0.6l6.2,1.3c1.6,0.3,2.9,1.5,3.4,3.1
	l1.5,5c0.1,0.3,0.5,0.3,0.6,0l1.3-4.9c0.4-1.6,1.7-2.8,3.3-3.2l6.6-1.5c0.3-0.1,0.3-0.5,0-0.6l-6.6-1.7c-1.6-0.4-2.8-1.7-3.2-3.3
	l-1.4-5.7C268.5,137.3,268.1,137.3,268,137.6z"/>
<path class="st6" d="M279.9,167.4l-1.1,4c-0.3,1-1,1.8-2,2.1l-4.4,1.3c-0.2,0.1-0.2,0.4,0,0.4l4.2,0.9c1.1,0.2,2,1,2.3,2.1l1,3.4
	c0.1,0.2,0.3,0.2,0.4,0l0.9-3.3c0.3-1.1,1.2-1.9,2.2-2.2l4.5-1c0.2,0,0.2-0.4,0-0.4l-4.5-1.2c-1.1-0.3-1.9-1.1-2.2-2.2l-0.9-3.9
	C280.3,167.2,280,167.2,279.9,167.4z"/>
</svg>
