<?xml version="1.0" encoding="utf-8"?>
<!-- Generator: Adobe Illustrator 19.0.0, SVG Export Plug-In . SVG Version: 6.00 Build 0)  -->
<svg version="1.1" id="Layer_1" xmlns="http://www.w3.org/2000/svg" xmlns:xlink="http://www.w3.org/1999/xlink" x="0px" y="0px"
	 viewBox="0 0 750 750" style="enable-background:new 0 0 750 750;" xml:space="preserve">
<style type="text/css">
	.st0{fill:url(#XMLID_43_);stroke:#FFFFFF;stroke-width:8;stroke-miterlimit:10;}
	.st1{fill:#2C2C2C;}
	.st2{fill:none;stroke:#FFFFFF;stroke-width:8;stroke-miterlimit:10;}
	.st3{fill:#2C2C2C;stroke:#FFFFFF;stroke-width:8;stroke-miterlimit:10;}
	.st4{fill:url(#XMLID_44_);stroke:#FFFFFF;stroke-width:8;stroke-miterlimit:10;}
	.st5{fill:url(#XMLID_45_);stroke:#FFFFFF;stroke-width:8;stroke-miterlimit:10;}
	.st6{fill:url(#XMLID_46_);stroke:#FFFFFF;stroke-width:8;stroke-miterlimit:10;}
	.st7{fill:url(#XMLID_47_);stroke:#FFFFFF;stroke-width:8;stroke-miterlimit:10;}
	.st8{fill:url(#XMLID_48_);stroke:#FFFFFF;stroke-width:8;stroke-miterlimit:10;}
	.st9{fill:url(#XMLID_49_);stroke:#FFFFFF;stroke-width:8;stroke-miterlimit:10;}
	.st10{fill:url(#XMLID_50_);stroke:#FFFFFF;stroke-width:8;stroke-miterlimit:10;}
	.st11{fill:url(#XMLID_51_);stroke:#FFFFFF;stroke-width:8;stroke-miterlimit:10;}
	.st12{fill:url(#XMLID_52_);stroke:#FFFFFF;stroke-width:8;stroke-miterlimit:10;}
	.st13{fill:none;stroke:#FFFFFF;stroke-width:10;stroke-miterlimit:10;}
</style>
<linearGradient id="XMLID_43_" gradientUnits="userSpaceOnUse" x1="369.441" y1="663.6121" x2="369.441" y2="87.259">
	<stop  offset="0" style="stop-color:#5FC2FF"/>
	<stop  offset="1" style="stop-color:#4A61D1"/>
</linearGradient>
<circle id="XMLID_85_" class="st0" cx="369.4" cy="375.4" r="288.2"/>
<path id="XMLID_37_" class="st1" d="M623,512H116c0,0,81.2,151.6,247.7,151.6S623,512,623,512z"/>
<circle id="XMLID_41_" class="st2" cx="369.4" cy="375.4" r="288.2"/>
<path id="XMLID_35_" class="st2" d="M137.5,511.8c0-107.3,54.2-100.8,54.2-100.8h-0.2c0,0,54.2-6.5,54.2,100.7"/>
<rect id="XMLID_38_" x="205.3" y="324.4" class="st3" width="74.8" height="47.5"/>
<rect id="XMLID_5_" x="455" y="237" class="st1" width="118" height="273"/>
<path id="XMLID_1_" class="st3" d="M238.9,511.9c72.1,0,74.6-64.6,136.7-64.6s52.2,64.6,114.4,64.6c91,0,59.7-174-114.4-174
	S158.8,511.9,238.9,511.9z"/>
<line id="XMLID_3_" class="st3" x1="116" y1="512" x2="623" y2="512"/>
<path id="XMLID_6_" class="st3" d="M363.7,364.9c9.5-0.3,19.6,0.2,30.3,2"/>
<path id="XMLID_2_" class="st3" d="M363.7,364.9"/>
<path id="XMLID_4_" class="st3" d="M260.2,411.3c0,0,31.3-35.5,84.5-44.5"/>
<polygon id="XMLID_7_" class="st3" points="571.1,236.8 514.1,295.8 457,236.8 514.1,179.7 "/>
<line id="XMLID_9_" class="st3" x1="514" y1="296" x2="514" y2="394"/>
<linearGradient id="XMLID_44_" gradientUnits="userSpaceOnUse" x1="455" y1="353" x2="455" y2="237">
	<stop  offset="0" style="stop-color:#5FC2FF"/>
	<stop  offset="1" style="stop-color:#4A61D1"/>
</linearGradient>
<line id="XMLID_8_" class="st4" x1="455" y1="353" x2="455" y2="237"/>
<linearGradient id="XMLID_45_" gradientUnits="userSpaceOnUse" x1="573" y1="510" x2="573" y2="237">
	<stop  offset="0" style="stop-color:#5FC2FF"/>
	<stop  offset="1" style="stop-color:#4A61D1"/>
</linearGradient>
<line id="XMLID_11_" class="st5" x1="573" y1="237" x2="573" y2="510"/>
<linearGradient id="XMLID_46_" gradientUnits="userSpaceOnUse" x1="514" y1="237" x2="514" y2="237">
	<stop  offset="0" style="stop-color:#5FC2FF"/>
	<stop  offset="1" style="stop-color:#4A61D1"/>
</linearGradient>
<line id="XMLID_12_" class="st6" x1="460" y1="237" x2="568" y2="237"/>
<linearGradient id="XMLID_47_" gradientUnits="userSpaceOnUse" x1="514" y1="277" x2="514" y2="277">
	<stop  offset="0" style="stop-color:#5FC2FF"/>
	<stop  offset="1" style="stop-color:#4A61D1"/>
</linearGradient>
<line id="XMLID_13_" class="st7" x1="496" y1="277" x2="532" y2="277"/>
<linearGradient id="XMLID_48_" gradientUnits="userSpaceOnUse" x1="514" y1="264" x2="514" y2="264">
	<stop  offset="0" style="stop-color:#5FC2FF"/>
	<stop  offset="1" style="stop-color:#4A61D1"/>
</linearGradient>
<line id="XMLID_14_" class="st8" x1="483" y1="264" x2="545" y2="264"/>
<linearGradient id="XMLID_49_" gradientUnits="userSpaceOnUse" x1="514" y1="250" x2="514" y2="250">
	<stop  offset="0" style="stop-color:#5FC2FF"/>
	<stop  offset="1" style="stop-color:#4A61D1"/>
</linearGradient>
<line id="XMLID_15_" class="st9" x1="470" y1="250" x2="558" y2="250"/>
<linearGradient id="XMLID_50_" gradientUnits="userSpaceOnUse" x1="514" y1="303" x2="514" y2="303" gradientTransform="matrix(1 0 0 -1 0 499)">
	<stop  offset="0" style="stop-color:#5FC2FF"/>
	<stop  offset="1" style="stop-color:#4A61D1"/>
</linearGradient>
<line id="XMLID_18_" class="st10" x1="496" y1="196" x2="532" y2="196"/>
<linearGradient id="XMLID_51_" gradientUnits="userSpaceOnUse" x1="514" y1="290" x2="514" y2="290" gradientTransform="matrix(1 0 0 -1 0 499)">
	<stop  offset="0" style="stop-color:#5FC2FF"/>
	<stop  offset="1" style="stop-color:#4A61D1"/>
</linearGradient>
<line id="XMLID_17_" class="st11" x1="483" y1="209" x2="545" y2="209"/>
<linearGradient id="XMLID_52_" gradientUnits="userSpaceOnUse" x1="514" y1="276" x2="514" y2="276" gradientTransform="matrix(1 0 0 -1 0 499)">
	<stop  offset="0" style="stop-color:#5FC2FF"/>
	<stop  offset="1" style="stop-color:#4A61D1"/>
</linearGradient>
<line id="XMLID_16_" class="st12" x1="470" y1="223" x2="558" y2="223"/>
<line id="XMLID_19_" class="st3" x1="455" y1="282" x2="477" y2="282"/>
<line id="XMLID_20_" class="st3" x1="455" y1="309" x2="477" y2="309"/>
<line id="XMLID_21_" class="st3" x1="455" y1="335" x2="477" y2="335"/>
<line id="XMLID_24_" class="st3" x1="551" y1="282" x2="573" y2="282"/>
<line id="XMLID_23_" class="st3" x1="551" y1="309" x2="573" y2="309"/>
<line id="XMLID_22_" class="st3" x1="551" y1="335" x2="573" y2="335"/>
<line id="XMLID_27_" class="st3" x1="551" y1="335" x2="573" y2="335"/>
<line id="XMLID_26_" class="st3" x1="551" y1="362" x2="573" y2="362"/>
<line id="XMLID_25_" class="st3" x1="551" y1="388" x2="573" y2="388"/>
<line id="XMLID_30_" class="st3" x1="551" y1="389" x2="573" y2="389"/>
<line id="XMLID_29_" class="st3" x1="551" y1="416" x2="573" y2="416"/>
<line id="XMLID_28_" class="st3" x1="551" y1="442" x2="573" y2="442"/>
<line id="XMLID_33_" class="st3" x1="551" y1="442" x2="573" y2="442"/>
<line id="XMLID_32_" class="st3" x1="551" y1="469" x2="573" y2="469"/>
<line id="XMLID_31_" class="st3" x1="82" y1="389" x2="238" y2="389"/>
<path id="XMLID_34_" class="st2" d="M83.5,411.3c0,0,54.2-6.6,54.2,100.7"/>
<rect id="XMLID_10_" x="110.1" y="324.4" class="st3" width="74.8" height="47.5"/>
<line id="XMLID_39_" class="st13" x1="123" y1="345" x2="171" y2="345"/>
<line id="XMLID_40_" class="st13" x1="219" y1="345" x2="267" y2="345"/>
<path id="XMLID_36_" class="st2" d="M137.5,389.1"/>
</svg>
