<?xml version="1.0" encoding="utf-8"?>
<!-- Generator: Adobe Illustrator 19.0.0, SVG Export Plug-In . SVG Version: 6.00 Build 0)  -->
<svg version="1.1" id="Layer_1" xmlns="http://www.w3.org/2000/svg" xmlns:xlink="http://www.w3.org/1999/xlink" x="0px" y="0px"
	 viewBox="-344 346.7 389.7 389.3" style="enable-background:new -344 346.7 389.7 389.3;" xml:space="preserve">
<style type="text/css">
	.st0{fill:#5FC2FF;}
	.st1{fill:#4A2A93;}
	.st2{fill:#4A61D1;}
	.st3{fill:url(#XMLID_2_);}
	.st4{fill:url(#SVGID_1_);}
</style>
<g id="XMLID_111_">
	<polygon id="XMLID_125_" class="st0" points="-239.8,553.4 -239.8,553.4 -247.4,521 	"/>
	<path id="XMLID_128_" class="st1" d="M45.7,541.8c0-51.2-19.7-97.8-52-132.5l-51.3,52.4c8,18.8,10.5,40.4,5.5,62.2l-0.9,4l0.9-3.7
		l-0.9,2.2l-6.6,27.2h1.3h-1.3l-9.3,40.8l9.3-40.8h-0.1l-40.4,175.6C-16.1,707.1,45.7,632.4,45.7,541.8z"/>
	<polygon id="XMLID_130_" class="st0" points="-59.5,553.4 -52.9,524.7 -59.6,553.4 	"/>
	<path id="XMLID_131_" class="st2" d="M-242,461.5c-8.1,18.9-10.5,39.1-5.4,61l7.5,30.9h180.3l6.7-27.2l0.9-3.2
		c5-21.8,2.5-43-5.5-61.8l-92.2,94.4L-242,461.5z"/>
	
		<linearGradient id="XMLID_2_" gradientUnits="userSpaceOnUse" x1="-149.65" y1="532.1" x2="-149.65" y2="349.4" gradientTransform="matrix(1 0 0 -1 0 1085.4)">
		<stop  offset="0" style="stop-color:#5FC2FF"/>
		<stop  offset="1" style="stop-color:#4A61D1"/>
	</linearGradient>
	<path id="XMLID_134_" class="st3" d="M-239.8,553.4l9.5,40.8L-239.8,553.4L-239.8,553.4l40.3,175.3c16,4.3,32.9,7.3,50.2,7.3
		c17.1,0,33.6-3.3,49.4-7.5l40.4-175.2h-180.3V553.4z M-168.3,676.4v-62h41v62H-168.3z"/>
	<path id="XMLID_136_" class="st1" d="M-240.6,553.4h0.7l-7.5-30.9c-5.1-21.9-2.7-42.8,5.4-61.7l-50.8-51.6
		c-32,34.7-51.6,81.3-51.6,132.3c0,90.4,61.4,164.9,144.8,187.1l-40.3-175.3L-240.6,553.4L-240.6,553.4z"/>
	<rect id="XMLID_137_" x="-168.3" y="614.4" class="st2" width="41" height="62"/>
	<linearGradient id="SVGID_1_" gradientUnits="userSpaceOnUse" x1="-149.45" y1="555.8" x2="-149.45" y2="346.7">
		<stop  offset="0" style="stop-color:#FFCD2C"/>
		<stop  offset="0.3229" style="stop-color:#FFE033"/>
		<stop  offset="0.6629" style="stop-color:#FFEC37"/>
		<stop  offset="1" style="stop-color:#FFF039"/>
	</linearGradient>
	<path class="st4" d="M-57.4,461.6l51.3-52.4c-35.8-38.4-86.7-62.5-143.2-62.5c-56.8,0-107.8,24.2-143.5,62.9l50.8,51.9
		c0.1-0.2,0.2-0.5,0.4-0.7c-0.1,0.3-0.2,0.5-0.3,0.8l92.2,94.2l92.2-94.2c-0.2-0.5-0.4-1-0.7-1.5l0.1,0
		C-57.9,460.6-57.7,461.1-57.4,461.6z"/>
</g>
</svg>
