<?xml version="1.0" encoding="utf-8"?>
<!-- Generator: Adobe Illustrator 19.0.0, SVG Export Plug-In . SVG Version: 6.00 Build 0)  -->
<svg version="1.1" xmlns="http://www.w3.org/2000/svg" xmlns:xlink="http://www.w3.org/1999/xlink" x="0px" y="0px"
	 viewBox="774 -85.7 1944.2 782.7" style="enable-background:new 774 -85.7 1944.2 782.7;" xml:space="preserve">
<style type="text/css">
	.st0{fill:#FFC200;}
	.st1{fill:none;stroke:#FFFFFF;stroke-width:3;stroke-miterlimit:10;}
	.st2{fill:none;stroke:#FFFFFF;stroke-width:2.5543;stroke-miterlimit:10;}
	.st3{fill:none;stroke:#FFFFFF;stroke-width:2.291;stroke-miterlimit:10;}
	.st4{fill:#FFFFFF;}
	.st5{fill:none;stroke:#FFFFFF;stroke-width:2.3492;stroke-miterlimit:10;}
	.st6{fill:none;stroke:#FFFFFF;stroke-width:2.361;stroke-miterlimit:10;}
	.st7{fill:none;stroke:#FFFFFF;stroke-width:2;stroke-miterlimit:10;}
	.st8{fill:#FFFFFF;stroke:#FFFFFF;stroke-width:2;stroke-miterlimit:10;}
	.st9{fill:#FFFFFF;stroke:#FFFFFF;stroke-miterlimit:10;}
	.st10{fill:none;stroke:#FFFFFF;stroke-miterlimit:10;}
	.st11{fill:none;stroke:#FFFFFF;stroke-width:2.481;stroke-miterlimit:10;}
	.st12{fill:none;stroke:#FFFFFF;stroke-width:2.0072;stroke-miterlimit:10;}
</style>
<g id="Layer_2">
	<rect x="744" y="-125.3" class="st0" width="2035.4" height="907.2"/>
</g>
<g id="Layer_1">
	<path id="XMLID_2_" class="st1" d="M2199.9,433.2c0,7.6-13.8,28.6-13.8,28.6s-13.8-21-13.8-28.6c0-7.6,6.2-13.8,13.8-13.8
		C2193.7,419.4,2199.9,425.6,2199.9,433.2z"/>
	<circle id="XMLID_1_" class="st1" cx="2186.1" cy="432.5" r="4.4"/>
	<polyline class="st1" points="1429.4,365 1378.8,365 1378.8,284.3 1459.6,284.3 1459.6,327.5 	"/>
	<polyline class="st1" points="1338.2,324.6 1338.2,365 1257.4,365 1257.4,284.3 1318.5,284.3 	"/>
	<rect x="1141" y="284.3" class="st1" width="80.8" height="80.8"/>
	<rect x="912.4" y="143" class="st1" width="547.2" height="80.8"/>
	<polyline class="st2" points="1141,467.3 1141,418.7 1459.6,418.7 1459.6,499.5 1200.8,499.5 	"/>
	<path class="st3" d="M1489.5,364l-50.2-38.6l2.4,63.3c0,0,7.4-8.7,13-15.2l16.1,31.2l15-7.7l-16.1-31.2L1489.5,364z"/>
	<polygon class="st1" points="1299.7,324.6 1276.6,301.5 1265.6,312.5 1288.7,335.6 1300.6,347.5 1311.6,336.5 1362.2,277.8 
		1349.3,267 	"/>
	<polyline class="st1" points="1100.9,324.6 1100.9,365 1020.1,365 1020.1,284.3 1081.2,284.3 	"/>
	<polygon class="st1" points="1062.4,324.6 1039.3,301.5 1028.3,312.5 1051.4,335.6 1063.3,347.5 1074.3,336.5 1124.9,277.8 
		1112,267 	"/>
	<polyline class="st1" points="1400.2,177.4 1419.2,196.4 1438.3,177.4 	"/>
	<rect x="941.4" y="173.8" class="st4" width="259.4" height="19"/>
	<rect x="1238.1" y="449.5" class="st4" width="151.7" height="19"/>
	<polyline class="st1" points="1996.4,269.1 1996.4,589 1495.8,589 1495.8,426.1 	"/>
	<polyline class="st1" points="1495.8,325.4 1495.8,71.3 1996.4,71.3 1996.4,145.9 	"/>
	<circle class="st5" cx="1182.7" cy="461.7" r="24"/>
	<path class="st2" d="M1205.1,484.1c12.4-12.4,12.4-32.5,0-44.9c-12.4-12.4-32.5-12.4-44.9,0c-10.1,10.1-12,25.4-5.6,37.4
		l-27.7,27.7l13,13l27.7-27.7C1179.7,496.1,1195,494.3,1205.1,484.1z"/>
	<g>
		<rect x="1514.2" y="90.9" class="st4" width="463.9" height="70.3"/>
		<rect x="1530.6" y="116.5" class="st0" width="79.4" height="19"/>
		<rect x="1883" y="116.5" class="st0" width="79.4" height="19"/>
		<rect x="1765.5" y="116.5" class="st0" width="79.4" height="19"/>
		<rect x="1648.1" y="116.5" class="st0" width="79.4" height="19"/>
	</g>
	<g>
		<rect x="1514.2" y="499.6" class="st0" width="463.9" height="70.3"/>
		<rect x="1530.6" y="525.2" class="st1" width="79.4" height="19"/>
		<rect x="1883" y="525.2" class="st1" width="79.4" height="19"/>
		<rect x="1765.5" y="525.2" class="st1" width="79.4" height="19"/>
		<rect x="1648.1" y="525.2" class="st1" width="79.4" height="19"/>
	</g>
	<g>
		<rect x="1514.2" y="172.6" class="st0" width="463.9" height="70.3"/>
		<rect x="1530.6" y="198.3" class="st1" width="79.4" height="19"/>
		<rect x="1883" y="198.3" class="st1" width="79.4" height="19"/>
		<rect x="1765.5" y="198.3" class="st1" width="79.4" height="19"/>
		<rect x="1648.1" y="198.3" class="st1" width="79.4" height="19"/>
	</g>
	<g>
		<rect x="1514.2" y="254.4" class="st0" width="463.9" height="70.3"/>
		<rect x="1530.6" y="280" class="st1" width="79.4" height="19"/>
		<rect x="1883" y="280" class="st1" width="79.4" height="19"/>
		<rect x="1765.5" y="280" class="st1" width="79.4" height="19"/>
		<rect x="1648.1" y="280" class="st1" width="79.4" height="19"/>
	</g>
	<g>
		<rect x="1514.2" y="336.1" class="st0" width="463.9" height="70.3"/>
		<rect x="1530.6" y="361.8" class="st1" width="79.4" height="19"/>
		<rect x="1883" y="361.8" class="st1" width="79.4" height="19"/>
		<rect x="1765.5" y="361.8" class="st1" width="79.4" height="19"/>
		<rect x="1648.1" y="361.8" class="st1" width="79.4" height="19"/>
	</g>
	<g>
		<rect x="1514.2" y="417.9" class="st0" width="463.9" height="70.3"/>
		<rect x="1530.6" y="443.5" class="st1" width="79.4" height="19"/>
		<rect x="1883" y="443.5" class="st1" width="79.4" height="19"/>
		<rect x="1765.5" y="443.5" class="st1" width="79.4" height="19"/>
		<rect x="1648.1" y="443.5" class="st1" width="79.4" height="19"/>
	</g>
	<rect x="2030.8" y="135" class="st1" width="249.1" height="61.8"/>
	<rect x="2113.4" y="207.2" class="st1" width="166.6" height="61.8"/>
	<rect x="2196.6" y="280.1" class="st1" width="83.3" height="30.9"/>
	<rect x="2083.9" y="363.9" class="st6" width="196.1" height="196.1"/>
	<line class="st7" x1="2153.3" y1="363.9" x2="2157.2" y2="559.6"/>
	<line class="st7" x1="2203.6" y1="426.1" x2="2280.9" y2="424.2"/>
	<line class="st7" x1="2083.9" y1="429" x2="2167" y2="427"/>
	<line class="st7" x1="2174.5" y1="363.9" x2="2280.9" y2="543.6"/>
	<line class="st7" x1="2256" y1="363.9" x2="2260.9" y2="559.6"/>
	<polygon class="st8" points="2180.6,374.1 2256,372.7 2257.5,424.7 2211.2,425.9 	"/>
	<line class="st9" x1="2083.9" y1="507.1" x2="2280.9" y2="504.1"/>
	<polyline class="st10" points="2196.5,453.8 2206.8,453.8 2223.3,446.4 	"/>
	<line class="st10" x1="2083.9" y1="453.8" x2="2174.5" y2="453.8"/>
	<line class="st10" x1="2206.8" y1="453.8" x2="2208.6" y2="559.6"/>
	<rect x="2329.5" y="151.9" class="st1" width="173.8" height="49.9"/>
	<rect x="2329.5" y="213.2" class="st4" width="173.8" height="31.3"/>
	<rect x="2329.5" y="280.1" class="st11" width="118.9" height="49.9"/>
	<rect x="2329.5" y="341.4" class="st4" width="173.8" height="31.3"/>
	<rect x="2329.5" y="403.1" class="st12" width="77.8" height="49.9"/>
	<rect x="2329.5" y="464.3" class="st4" width="77.8" height="31.3"/>
	<rect x="2425.5" y="403.1" class="st12" width="77.8" height="49.9"/>
	<rect x="2425.5" y="464.3" class="st4" width="77.8" height="31.3"/>
	<polyline class="st1" points="1996.4,185.1 1996.4,165.9 2030.8,165.9 	"/>
	<polyline class="st1" points="1570.3,217.3 1570.3,245.6 1996.4,245.6 1996.4,230.8 	"/>
	<polygon id="XMLID_45_" class="st10" points="1998.1,188.8 1992.3,210.4 1996.7,209.9 1994,225.9 2002.1,204.5 1997,204.8 	"/>
</g>
</svg>
