<?xml version="1.0" encoding="utf-8"?>
<!-- Generator: Adobe Illustrator 19.0.0, SVG Export Plug-In . SVG Version: 6.00 Build 0)  -->
<svg version="1.1" id="Layer_1" xmlns="http://www.w3.org/2000/svg" xmlns:xlink="http://www.w3.org/1999/xlink" x="0px" y="0px"
	 viewBox="0 0 600 600" style="enable-background:new 0 0 600 600;" xml:space="preserve">
<style type="text/css">
	.st0{display:none;fill:none;stroke:#2C2C2C;stroke-width:6;stroke-miterlimit:10;}
	.st1{fill:none;stroke:#2C2C2C;stroke-width:6;stroke-miterlimit:10;}
</style>
<g id="XMLID_1_">
	<path id="XMLID_106_" class="st0" d="M558.2,77.9"/>
	<path id="XMLID_105_" class="st0" d="M416.1,225.7c11.2,25.1,14.7,54.1,8,83.3l-22,96.1"/>
	<path id="XMLID_104_" class="st0" d="M416.1,225.7"/>
	<path id="XMLID_103_" class="st0" d="M190.9,405.1l-22.2-95.7c-6.7-29-3.4-57.7,7.5-82.7"/>
	<line id="XMLID_102_" class="st0" x1="168.7" y1="309.4" x2="230.2" y2="578.8"/>
	<line id="XMLID_101_" class="st0" x1="424.1" y1="309.4" x2="362.6" y2="578.6"/>
	<line id="XMLID_100_" class="st0" x1="177" y1="355" x2="416" y2="355"/>
	<path id="XMLID_98_" class="st0" d="M484.1,159.2c42.2,45.5,68,106.4,68,173.4c0,140.9-114.2,255.1-255.1,255.1
		S41.8,473.4,41.8,332.5c0-66.7,25.6-127.4,67.4-172.8l0,0l187.1,187.1L484.1,159.2z"/>
	<rect id="XMLID_97_" x="272.8" y="427.7" class="st0" width="48.2" height="78"/>
	<path id="XMLID_115_" class="st1" d="M371.8,87.4c0,41.4-75,156-75,156s-75-114.5-75-156s33.6-75,75-75S371.8,45.9,371.8,87.4z"/>
	<circle id="XMLID_114_" class="st1" cx="296.9" cy="84" r="24.1"/>
</g>
</svg>
