<?xml version="1.0" encoding="utf-8"?>
<!-- Generator: Adobe Illustrator 19.0.0, SVG Export Plug-In . SVG Version: 6.00 Build 0)  -->
<svg version="1.1" id="Layer_1" xmlns="http://www.w3.org/2000/svg" xmlns:xlink="http://www.w3.org/1999/xlink" x="0px" y="0px"
	 viewBox="0 0 750 750" style="enable-background:new 0 0 750 750;" xml:space="preserve">
<style type="text/css">
	.st0{fill:none;stroke:#000000;stroke-width:8;stroke-miterlimit:10;}
	.st1{fill:url(#XMLID_87_);stroke:#FFFFFF;stroke-width:8;stroke-miterlimit:10;}
	.st2{fill:#FFC200;}
	.st3{clip-path:url(#XMLID_88_);}
	.st4{fill:#2C2C2C;}
	.st5{clip-path:url(#XMLID_88_);fill:#2C2C2C;}
	.st6{fill:none;stroke:#FFFFFF;stroke-width:8;stroke-miterlimit:10;}
	.st7{fill:url(#XMLID_89_);stroke:#FFFFFF;stroke-width:8;stroke-miterlimit:10;}
	.st8{clip-path:url(#XMLID_90_);}
	.st9{clip-path:url(#XMLID_90_);fill:#2C2C2C;}
</style>
<image style="overflow:visible;" width="148" height="276" id="XMLID_2_" xlink:href="../../../Desktop/Screen Shot 2017-10-15 at 6.55.27 PM.png"  transform="matrix(2.65 0 0 2.1583 -1102.6875 77.1539)">
</image>
<g id="XMLID_9_">
	<rect id="XMLID_3_" x="-556" y="443.1" class="st0" width="58.1" height="237.3"/>
	<rect id="XMLID_5_" x="-447.1" y="443.1" class="st0" width="58.1" height="237.3"/>
</g>
<polyline id="XMLID_12_" class="st0" points="-542.5,443.1 -542.5,364.4 -403.3,364.4 -403.3,443.1 "/>
<polyline id="XMLID_7_" class="st0" points="-521.3,364.4 -521.3,320.6 -424.4,320.6 -424.4,364.4 "/>
<polyline id="XMLID_8_" class="st0" points="-501.4,320.6 -501.4,296.6 -444.3,296.6 -444.3,320.6 "/>
<rect id="XMLID_4_" x="-486.9" y="215.8" class="st0" width="28.1" height="80.8"/>
<line id="XMLID_10_" class="st0" x1="-473" y1="127" x2="-473" y2="216"/>
<line id="XMLID_26_" class="st0" x1="-473" y1="385" x2="-473" y2="680"/>
<line id="XMLID_11_" class="st0" x1="-473" y1="334" x2="-473" y2="350"/>
<path id="XMLID_18_" class="st0" d="M-527,757"/>
<line id="XMLID_19_" class="st0" x1="-527" y1="462" x2="-527" y2="657"/>
<line id="XMLID_21_" class="st0" x1="-418" y1="462" x2="-418" y2="657"/>
<line id="XMLID_25_" class="st0" x1="-498" y1="385" x2="-498" y2="680"/>
<line id="XMLID_13_" class="st0" x1="-498" y1="334" x2="-498" y2="350"/>
<path id="XMLID_6_" class="st0" d="M-521,680"/>
<line id="XMLID_14_" class="st0" x1="-521" y1="385" x2="-521" y2="443"/>
<line id="XMLID_27_" class="st0" x1="-447" y1="385" x2="-447" y2="680"/>
<line id="XMLID_15_" class="st0" x1="-447" y1="334" x2="-447" y2="350"/>
<path id="XMLID_17_" class="st0" d="M-424,680"/>
<line id="XMLID_16_" class="st0" x1="-424" y1="385" x2="-424" y2="443"/>
<g id="XMLID_50_">
	<linearGradient id="XMLID_87_" gradientUnits="userSpaceOnUse" x1="375" y1="663.1765" x2="375" y2="86.8235">
		<stop  offset="0" style="stop-color:#5FC2FF"/>
		<stop  offset="1" style="stop-color:#4A61D1"/>
	</linearGradient>
	<circle id="XMLID_1_" class="st1" cx="375" cy="375" r="288.2"/>
	<path id="XMLID_47_" class="st2" d="M527.3,619.7c7.1-18.3,10.9-38.1,10.9-58.9c0-90.2-73.1-163.2-163.2-163.2
		s-163.2,73.1-163.2,163.2c0,20.8,3.9,40.6,10.9,58.9c0,0,64.5,43.5,151.9,43.5S527.3,619.7,527.3,619.7z"/>
	<g id="XMLID_48_">
		<defs>
			<circle id="XMLID_46_" cx="375" cy="375" r="288.2"/>
		</defs>
		<clipPath id="XMLID_88_">
			<use xlink:href="#XMLID_46_"  style="overflow:visible;"/>
		</clipPath>
		<g id="XMLID_71_" class="st3">
			<rect id="XMLID_72_" x="292" y="472" class="st4" width="58" height="237"/>
			<rect id="XMLID_73_" x="401" y="472" class="st4" width="58" height="237"/>
			<polygon id="XMLID_74_" class="st4" points="445,472 445,393 423,393 423,350 404,350 404,326 389,326 389,245 361,245 361,326 
				347,326 347,350 327,350 327,393 305,393 305,472 			"/>
		</g>
		<rect id="XMLID_49_" x="326.6" y="462" class="st5" width="94.6" height="210"/>
		<g id="XMLID_45_" class="st3">
			<g id="XMLID_42_">
				<rect id="XMLID_44_" x="291.5" y="471.7" class="st6" width="58.1" height="237.3"/>
				<rect id="XMLID_43_" x="400.4" y="471.7" class="st6" width="58.1" height="237.3"/>
			</g>
			<polyline id="XMLID_41_" class="st6" points="305,471.7 305,393 444.2,393 444.2,471.7 			"/>
			<polyline id="XMLID_40_" class="st6" points="326.2,393 326.2,349.2 423.1,349.2 423.1,393 			"/>
			<polyline id="XMLID_39_" class="st6" points="346.1,349.2 346.1,325.2 403.2,325.2 403.2,349.2 			"/>
			<rect id="XMLID_38_" x="360.6" y="244.4" class="st6" width="28.1" height="80.8"/>
			<line id="XMLID_37_" class="st6" x1="375" y1="156" x2="375" y2="245"/>
			<line id="XMLID_36_" class="st6" x1="375" y1="414" x2="375" y2="709"/>
			<line id="XMLID_35_" class="st6" x1="375" y1="363" x2="375" y2="379"/>
			<path id="XMLID_34_" class="st6" d="M320.3,785.6"/>
			<line id="XMLID_33_" class="st6" x1="321" y1="491" x2="321" y2="686"/>
			<line id="XMLID_32_" class="st6" x1="430" y1="491" x2="430" y2="686"/>
			<line id="XMLID_31_" class="st6" x1="350" y1="414" x2="350" y2="709"/>
			<line id="XMLID_30_" class="st6" x1="350" y1="363" x2="350" y2="379"/>
			<path id="XMLID_29_" class="st6" d="M326.3,708.6"/>
			<line id="XMLID_28_" class="st6" x1="327" y1="414" x2="327" y2="472"/>
			<line id="XMLID_24_" class="st6" x1="401" y1="414" x2="401" y2="709"/>
			<line id="XMLID_23_" class="st6" x1="401" y1="363" x2="401" y2="379"/>
			<path id="XMLID_22_" class="st6" d="M423.3,708.6"/>
			<line id="XMLID_20_" class="st6" x1="424" y1="414" x2="424" y2="472"/>
		</g>
	</g>
</g>
<linearGradient id="XMLID_89_" gradientUnits="userSpaceOnUse" x1="339.441" y1="1365.6121" x2="339.441" y2="789.259">
	<stop  offset="0" style="stop-color:#5FC2FF"/>
	<stop  offset="1" style="stop-color:#4A61D1"/>
</linearGradient>
<circle id="XMLID_85_" class="st7" cx="339.4" cy="1077.4" r="288.2"/>
<path id="XMLID_84_" class="st2" d="M491.7,1322.1c7.1-18.3,10.9-38.1,10.9-58.9c0-90.2-73.1-163.2-163.2-163.2
	s-163.2,73.1-163.2,163.2c0,20.8,3.9,40.6,10.9,58.9c0,0,64.5,43.5,151.9,43.5S491.7,1322.1,491.7,1322.1z"/>
<g id="XMLID_51_">
	<defs>
		<circle id="XMLID_52_" cx="339.4" cy="1077.4" r="288.2"/>
	</defs>
	<clipPath id="XMLID_90_">
		<use xlink:href="#XMLID_52_"  style="overflow:visible;"/>
	</clipPath>
	<g id="XMLID_80_" class="st8">
		<rect id="XMLID_83_" x="256" y="1174" class="st4" width="58" height="237"/>
		<rect id="XMLID_82_" x="365" y="1174" class="st4" width="58" height="237"/>
		<polygon id="XMLID_81_" class="st4" points="409,1174 409,1095 387,1095 387,1052 368,1052 368,1028 353,1028 353,947 325,947 
			325,1028 311,1028 311,1052 291,1052 291,1095 269,1095 269,1174 		"/>
	</g>
	<rect id="XMLID_79_" x="291" y="1164.5" class="st9" width="94.6" height="210"/>
	<g id="XMLID_53_" class="st8">
		<g id="XMLID_76_">
			<rect id="XMLID_78_" x="255.9" y="1174.1" class="st6" width="58.1" height="237.3"/>
			<rect id="XMLID_77_" x="364.9" y="1174.1" class="st6" width="58.1" height="237.3"/>
		</g>
		<polyline id="XMLID_75_" class="st6" points="269.4,1174.1 269.4,1095.4 408.7,1095.4 408.7,1174.1 		"/>
		<polyline id="XMLID_70_" class="st6" points="290.6,1095.4 290.6,1051.6 387.5,1051.6 387.5,1095.4 		"/>
		<polyline id="XMLID_69_" class="st6" points="310.5,1051.6 310.5,1027.6 367.6,1027.6 367.6,1051.6 		"/>
		<rect id="XMLID_68_" x="325" y="946.8" class="st6" width="28.1" height="80.8"/>
		<line id="XMLID_67_" class="st6" x1="339" y1="858" x2="339" y2="947"/>
		<line id="XMLID_66_" class="st6" x1="339" y1="1116" x2="339" y2="1411"/>
		<line id="XMLID_65_" class="st6" x1="339" y1="1065" x2="339" y2="1081"/>
		<path id="XMLID_64_" class="st6" d="M284.8,1488"/>
		<line id="XMLID_63_" class="st6" x1="285" y1="1193" x2="285" y2="1388"/>
		<line id="XMLID_62_" class="st6" x1="394" y1="1193" x2="394" y2="1388"/>
		<line id="XMLID_61_" class="st6" x1="314" y1="1116" x2="314" y2="1411"/>
		<line id="XMLID_60_" class="st6" x1="314" y1="1065" x2="314" y2="1081"/>
		<path id="XMLID_59_" class="st6" d="M290.8,1411"/>
		<line id="XMLID_58_" class="st6" x1="291" y1="1116" x2="291" y2="1174"/>
		<line id="XMLID_57_" class="st6" x1="365" y1="1116" x2="365" y2="1411"/>
		<line id="XMLID_56_" class="st6" x1="365" y1="1065" x2="365" y2="1081"/>
		<path id="XMLID_55_" class="st6" d="M387.8,1411"/>
		<line id="XMLID_54_" class="st6" x1="388" y1="1116" x2="388" y2="1174"/>
	</g>
</g>
</svg>
