<?xml version="1.0" encoding="utf-8"?>
<!-- Generator: Adobe Illustrator 19.0.0, SVG Export Plug-In . SVG Version: 6.00 Build 0)  -->
<svg version="1.1" id="Layer_1" xmlns="http://www.w3.org/2000/svg" xmlns:xlink="http://www.w3.org/1999/xlink" x="0px" y="0px"
	 viewBox="0 0 1944.2 782.7" style="enable-background:new 0 0 1944.2 782.7;" xml:space="preserve">
<style type="text/css">
	.st0{fill:none;stroke:#4A61D1;stroke-width:5.9315;stroke-miterlimit:10;}
	.st1{fill:#4A61D1;}
	.st2{fill:#FFFFFF;stroke:#4A61D1;stroke-width:5.9315;stroke-miterlimit:10;}
	.st3{fill:#FFFFFF;}
	.st4{fill:none;stroke:#4A61D1;stroke-width:5.9315;stroke-miterlimit:10;stroke-dasharray:29.6732,9.8911;}
	.st5{fill:#FFFFFF;stroke:#4A61D1;stroke-width:5.9315;stroke-miterlimit:10;stroke-dasharray:23.726,7.9087;}
	.st6{fill:#FFFFFF;stroke:#4A61D1;stroke-width:5.9315;stroke-miterlimit:10;stroke-dasharray:15.8173,7.9087;}
	.st7{fill:#FFFFFF;stroke:#4A61D1;stroke-width:5;stroke-miterlimit:10;}
	.st8{fill:#FFFFFF;stroke:#4A61D1;stroke-width:5.9315;stroke-linejoin:round;stroke-miterlimit:10;}
	.st9{fill:none;stroke:#4A61D1;stroke-width:5;stroke-miterlimit:10;}
	.st10{fill:none;stroke:#4A61D1;stroke-width:6;stroke-miterlimit:10;}
	.st11{fill:none;stroke:#4A61D1;stroke-width:5;stroke-linejoin:round;stroke-miterlimit:10;}
	.st12{fill:none;stroke:#4A61D1;stroke-width:5.9315;stroke-linejoin:round;stroke-miterlimit:10;}
</style>
<path id="XMLID_55_" class="st0" d="M1285.3,666.9H655.9c-12.5,0-22.6-10.1-22.6-22.6V261.6c0-12.5,10.1-22.6,22.6-22.6h629.4
	c12.5,0,22.6,10.1,22.6,22.6v382.7C1307.9,656.8,1297.8,666.9,1285.3,666.9z"/>
<rect id="XMLID_53_" x="672.1" y="287.6" class="st0" width="595.9" height="336"/>
<path id="XMLID_54_" class="st0" d="M1146,753H795.2c-1.2,0-2.3-1-2.3-2.3v-23.4c0-1.2,1-2.3,2.3-2.3H1146c1.2,0,2.3,1,2.3,2.3v23.4
	C1148.2,752,1147.2,753,1146,753z"/>
<path id="XMLID_59_" class="st0" d="M799,725.1c0,0,92.6-15.8,92.6-58.3"/>
<path id="XMLID_60_" class="st0" d="M1142.2,725.1c0,0-92.8-15.8-92.8-58.3"/>
<path id="XMLID_58_" class="st0" d="M334.9,88.6L237,99.4l0,0c-3.5-6.1-4.9-13.2-4.1-20.1v0l94.4-28l13.1-7.4
	c14.4-8.1,32.9-0.5,36.8,15.5c0.1,0.3,0.2,0.7,0.2,1c0.4,1.8,0.5,3.5,0.5,5.2c-0.1,14.7-13.1,26-27.8,24.5L334.9,88.6z"/>
<polygon id="XMLID_61_" class="st0" points="327.7,89 320.5,53.3 326.8,51.4 334.2,88.3 "/>
<polygon id="XMLID_63_" class="st1" points="213.1,97.9 211.7,91.8 233.6,82.8 236.8,96.2 "/>
<path id="XMLID_115_" class="st0" d="M1445.9,162.8c0,18.4-33.3,69.3-33.3,69.3s-33.3-50.9-33.3-69.3s14.9-33.3,33.3-33.3
	C1431,129.5,1445.9,144.4,1445.9,162.8z"/>
<circle id="XMLID_114_" class="st0" cx="1412.6" cy="161.3" r="10.7"/>
<polygon id="XMLID_11_" class="st2" points="462.3,367.9 392.7,392.4 392.7,297.9 462.3,273.4 "/>
<polygon id="XMLID_15_" class="st2" points="403.6,367.9 334,392.4 334,297.9 403.6,273.4 "/>
<g id="XMLID_17_">
	<path id="XMLID_56_" class="st3" d="M350.7,346.7c0,0,12.9-51.3,52.9-35"/>
	<g id="XMLID_13_">
		<path id="XMLID_52_" class="st0" d="M350.7,346.7c0,0,1.2-4.9,4.1-11.1"/>
		<path id="XMLID_38_" class="st4" d="M359.5,326.9c5.8-9,14.7-17.8,27.7-18.4"/>
		<path id="XMLID_36_" class="st0" d="M392.1,308.7c3.5,0.4,7.3,1.3,11.4,3"/>
	</g>
</g>
<line id="XMLID_18_" class="st5" x1="433.2" y1="313.6" x2="445.8" y2="326.2"/>
<line id="XMLID_19_" class="st5" x1="433.2" y1="326.2" x2="445.8" y2="313.6"/>
<polygon id="XMLID_14_" class="st1" points="405.8,369.5 394.4,393.9 394.4,373.3 "/>
<path id="XMLID_20_" class="st6" d="M403.6,343.6c0,0,27.8,21.2,35.9-13.6"/>
<rect id="XMLID_21_" x="675.1" y="145.5" transform="matrix(0.9504 -0.3109 0.3109 0.9504 -15.5887 241.8955)" class="st2" width="151.5" height="48.7"/>
<path id="XMLID_23_" class="st7" d="M1757.1,325.6c0-21-13.5-36.6-31.7-36.6h-54.9c-18.2,0-33,15.6-33,36.6c0,21,14.8,37.3,33,37.3
	l54.9-0.4c1.1,0,1-0.2,2.1-0.3l14.4,12.6v-19.6C1749.9,348.5,1757.1,338.4,1757.1,325.6z"/>
<circle id="XMLID_16_" class="st2" cx="750.9" cy="169.4" r="33.3"/>
<polyline id="XMLID_24_" class="st8" points="736.9,168.1 753.8,173.8 744.8,151 "/>
<path id="XMLID_22_" class="st9" d="M226.5,91.3c-10.8,4.1-26.3,3.8-26.3,3.8s0.3,0-12.9,0c-21.8,0-39.5,17.2-39.5,39
	s17.6,39,39.4,39h201.2"/>
<path id="XMLID_25_" class="st9" d="M427.4,253H48.9c-21.8,0-39.5,17.2-39.5,39c0,21.8,17.6,39,39.4,39h98.6"/>
<path id="XMLID_46_" class="st0" d="M118.1,413.4c-21.8,0-39.5,17.7-39.5,39.5c0,18.2,12.3,33.6,29,38.2"/>
<path id="XMLID_30_" class="st9" d="M1659.4,173h186.9c21.8,0,39.6,18.2,39.6,40s-17.6,40-39.4,40h-327.1"/>
<line id="XMLID_26_" class="st9" x1="419.4" y1="173" x2="455.4" y2="173"/>
<line id="XMLID_27_" class="st9" x1="493.4" y1="173" x2="607.4" y2="173"/>
<line id="XMLID_28_" class="st7" x1="886.4" y1="173" x2="1220.4" y2="173"/>
<line id="XMLID_29_" class="st7" x1="1258.4" y1="173" x2="1345.4" y2="173"/>
<line id="XMLID_31_" class="st9" x1="1618.4" y1="173" x2="1473.4" y2="173"/>
<line id="XMLID_33_" class="st9" x1="1400.4" y1="253" x2="1317.4" y2="253"/>
<line id="XMLID_34_" class="st9" x1="607.4" y1="253" x2="530.4" y2="253"/>
<circle id="XMLID_126_" class="st0" cx="969.6" cy="460.3" r="107.7"/>
<path id="XMLID_149_" class="st0" d="M1080.2,352.8"/>
<path id="XMLID_148_" class="st0" d="M1020.3,415.2c4.7,10.6,6.2,22.8,3.4,35.2l-9.3,40.5"/>
<path id="XMLID_147_" class="st0" d="M1020.3,415.2"/>
<path id="XMLID_146_" class="st0" d="M925.2,490.9l-9.4-40.4c-2.8-12.2-1.4-24.4,3.2-34.9"/>
<line id="XMLID_145_" class="st0" x1="915.8" y1="450.5" x2="941.8" y2="564.2"/>
<line id="XMLID_144_" class="st0" x1="1023.6" y1="450.5" x2="997.7" y2="564.1"/>
<line id="XMLID_143_" class="st9" x1="920.4" y1="471" x2="1021.4" y2="471"/>
<path id="XMLID_142_" class="st10" d="M1048.9,387.1c17.8,19.2,28.7,44.9,28.7,73.2c0,59.5-48.2,107.7-107.7,107.7
	c-59.5,0-107.7-48.1-107.7-107.6c0-28.1,10.8-53.8,28.5-72.8h0l79,78.9L1048.9,387.1z"/>
<rect id="XMLID_141_" x="959.8" y="500.5" class="st0" width="20.3" height="32.9"/>
<line id="XMLID_32_" class="st9" x1="1434.4" y1="253" x2="1493.4" y2="253"/>
<line id="XMLID_35_" class="st9" x1="178.4" y1="331" x2="281.4" y2="331"/>
<polygon id="XMLID_2_" class="st1" points="325.9,53.4 332.1,86.8 329,87.3 322,54.8 "/>
<rect id="XMLID_37_" x="281.7" y="72.6" transform="matrix(0.9882 -0.1535 0.1535 0.9882 -8.4386 45.7467)" class="st0" width="20.8" height="9.8"/>
<line id="XMLID_39_" class="st9" x1="574.4" y1="334" x2="607.4" y2="334"/>
<line id="XMLID_40_" class="st9" x1="515.4" y1="334" x2="550.4" y2="334"/>
<line id="XMLID_41_" class="st9" x1="1333.4" y1="334" x2="1600.4" y2="334"/>
<path id="XMLID_42_" class="st9" d="M1790.4,334h80.6h4h14.8c21.8,0,39.6,18.2,39.6,40c0,21.8-17.5,40-39.3,40h-165.7"/>
<line id="XMLID_43_" class="st9" x1="1693.4" y1="414" x2="1582.4" y2="414"/>
<line id="XMLID_47_" class="st9" x1="178.4" y1="414" x2="117.4" y2="414"/>
<line id="XMLID_49_" class="st9" x1="607.4" y1="414" x2="451.4" y2="414"/>
<line id="XMLID_44_" class="st9" x1="1560.4" y1="414" x2="1454.4" y2="414"/>
<path id="XMLID_48_" class="st9" d="M219.1,476.9c0.6-1.8,1-3.7,1-5.7c0-9.4-7.6-17-17-17c-2.2,0-4.3,0.4-6.2,1.2
	c-4-10.7-14.3-18.3-26.4-18.3c-13.8,0-25.3,10-27.7,23h-0.3c-13.9,0-25.1,11.5-25.1,25.4c0,13.9,11.4,25.4,25.4,25.4l75.3,0
	c9.4,0,17-7.6,17-17C235,484.8,228,477.5,219.1,476.9z"/>
<polygon id="XMLID_45_" class="st11" points="1427.4,418.8 1377.2,480 1404.1,480 1377.2,525.9 1441,465.9 1409.6,465.1 "/>
<line id="XMLID_51_" class="st9" x1="194.4" y1="414" x2="334.4" y2="414"/>
<line id="XMLID_64_" class="st9" x1="356.4" y1="414" x2="427.4" y2="414"/>
<line id="XMLID_79_" class="st9" x1="1574.4" y1="491" x2="1835.4" y2="491"/>
<line id="XMLID_68_" class="st9" x1="1442.4" y1="491" x2="1574.4" y2="491"/>
<line id="XMLID_69_" class="st9" x1="1323.4" y1="491" x2="1359.4" y2="491"/>
<line id="XMLID_66_" class="st9" x1="568.4" y1="491" x2="607.4" y2="491"/>
<path id="XMLID_65_" class="st0" d="M568,490.5"/>
<polyline id="XMLID_50_" class="st9" points="263.4,491 467.2,491 540.4,491 "/>
<line id="XMLID_80_" class="st9" x1="1112.4" y1="698" x2="1817.4" y2="698"/>
<line id="XMLID_67_" class="st9" x1="115.4" y1="698" x2="821.4" y2="698"/>
<line id="XMLID_71_" class="st9" x1="451.4" y1="253" x2="499.4" y2="253"/>
<line id="XMLID_72_" class="st11" x1="1323.4" y1="414" x2="1378.4" y2="414"/>
<rect id="XMLID_70_" x="1835.4" y="482.3" class="st12" width="39.2" height="16.4"/>
<line id="XMLID_74_" class="st11" x1="1875.4" y1="491" x2="1905.4" y2="491"/>
<rect id="XMLID_73_" x="1874.9" y="484.6" class="st1" width="13.2" height="11.7"/>
</svg>
