<?xml version="1.0" encoding="utf-8"?>
<!-- Generator: Adobe Illustrator 19.0.0, SVG Export Plug-In . SVG Version: 6.00 Build 0)  -->
<svg version="1.1" id="Layer_1" xmlns="http://www.w3.org/2000/svg" xmlns:xlink="http://www.w3.org/1999/xlink" x="0px" y="0px"
	 viewBox="12 149.3 1944.2 782.7" style="enable-background:new 12 149.3 1944.2 782.7;" xml:space="preserve">
<style type="text/css">
	.st0{fill:none;stroke:#4A61D1;stroke-width:3;stroke-miterlimit:10;}
	.st1{fill:#4A61D1;}
	.st2{fill:#FFFFFF;stroke:#4A61D1;stroke-width:3;stroke-miterlimit:10;}
	.st3{fill:#FFFFFF;}
	.st4{fill:none;stroke:#4A61D1;stroke-width:3;stroke-miterlimit:10;stroke-dasharray:29.6732,9.8911;}
	.st5{fill:none;stroke:#4A61D1;stroke-width:3;stroke-miterlimit:10;stroke-dasharray:23.726,7.9087;}
	.st6{fill:#FFFFFF;stroke:#4A61D1;stroke-width:3;stroke-miterlimit:10;stroke-dasharray:15.8173,7.9087;}
	.st7{fill:#FFFFFF;stroke:#4A61D1;stroke-width:3;stroke-linejoin:round;stroke-miterlimit:10;}
	.st8{fill:none;stroke:#4A61D1;stroke-width:3;stroke-linejoin:round;stroke-miterlimit:10;}
</style>
<path id="XMLID_55_" class="st0" d="M1297.3,816.2H667.9c-12.5,0-22.6-10.1-22.6-22.6V410.9c0-12.5,10.1-22.6,22.6-22.6h629.4
	c12.5,0,22.6,10.1,22.6,22.6v382.7C1319.9,806.1,1309.8,816.2,1297.3,816.2z"/>
<rect id="XMLID_53_" x="684.1" y="436.9" class="st0" width="595.9" height="336"/>
<path id="XMLID_54_" class="st0" d="M1158,902.3H807.2c-1.2,0-2.3-1-2.3-2.3v-23.4c0-1.2,1-2.3,2.3-2.3H1158c1.2,0,2.3,1,2.3,2.3
	V900C1160.2,901.3,1159.2,902.3,1158,902.3z"/>
<path id="XMLID_59_" class="st0" d="M811,874.4c0,0,92.6-15.8,92.6-58.3"/>
<path id="XMLID_60_" class="st0" d="M1154.2,874.4c0,0-92.8-15.8-92.8-58.3"/>
<path id="XMLID_58_" class="st0" d="M346.9,237.9L249,248.7l0,0c-3.5-6.1-4.9-13.2-4.1-20.1l0,0l94.4-28l13.1-7.4
	c14.4-8.1,32.9-0.5,36.8,15.5c0.1,0.3,0.2,0.7,0.2,1c0.4,1.8,0.5,3.5,0.5,5.2c-0.1,14.7-13.1,26-27.8,24.5L346.9,237.9z"/>
<polygon id="XMLID_61_" class="st0" points="339.7,238.3 332.5,202.6 338.8,200.7 346.2,237.6 "/>
<polygon id="XMLID_63_" class="st1" points="225.1,247.2 223.7,241.1 245.6,232.1 248.8,245.5 "/>
<path id="XMLID_115_" class="st0" d="M1457.9,312.1c0,18.4-33.3,69.3-33.3,69.3s-33.3-50.9-33.3-69.3c0-18.4,14.9-33.3,33.3-33.3
	S1457.9,293.7,1457.9,312.1z"/>
<circle id="XMLID_114_" class="st0" cx="1424.6" cy="310.6" r="10.7"/>
<polygon id="XMLID_11_" class="st2" points="474.3,517.2 404.7,541.7 404.7,447.2 474.3,422.7 "/>
<polygon id="XMLID_15_" class="st2" points="415.6,517.2 346,541.7 346,447.2 415.6,422.7 "/>
<g id="XMLID_17_">
	<path id="XMLID_56_" class="st3" d="M362.7,496c0,0,12.9-51.3,52.9-35"/>
	<g id="XMLID_13_">
		<path id="XMLID_52_" class="st0" d="M362.7,496c0,0,1.2-4.9,4.1-11.1"/>
		<path id="XMLID_38_" class="st4" d="M371.5,476.2c5.8-9,14.7-17.8,27.7-18.4"/>
		<path id="XMLID_36_" class="st0" d="M404.1,458c3.5,0.4,7.3,1.3,11.4,3"/>
	</g>
</g>
<line id="XMLID_18_" class="st5" x1="445.2" y1="462.9" x2="457.8" y2="475.5"/>
<line id="XMLID_19_" class="st5" x1="445.2" y1="475.5" x2="457.8" y2="462.9"/>
<polygon id="XMLID_14_" class="st1" points="417.8,518.8 406.4,543.2 406.4,522.6 "/>
<path id="XMLID_20_" class="st6" d="M415.6,492.9c0,0,27.8,21.2,35.9-13.6"/>
<rect id="XMLID_21_" x="687.1" y="294.8" transform="matrix(-0.9504 0.3109 -0.3109 -0.9504 1587.0818 385.3721)" class="st2" width="151.5" height="48.7"/>
<path id="XMLID_23_" class="st2" d="M1769.1,474.9c0-21-13.5-36.6-31.7-36.6h-54.9c-18.2,0-33,15.6-33,36.6s14.8,37.3,33,37.3
	l54.9-0.4c1.1,0,1-0.2,2.1-0.3l14.4,12.6v-19.6C1761.9,497.8,1769.1,487.7,1769.1,474.9z"/>
<circle id="XMLID_16_" class="st2" cx="762.9" cy="318.7" r="33.3"/>
<polyline id="XMLID_24_" class="st7" points="748.9,317.4 765.8,323.1 756.8,300.3 "/>
<path id="XMLID_22_" class="st0" d="M238.5,240.6c-10.8,4.1-26.3,3.8-26.3,3.8s0.3,0-12.9,0c-21.8,0-39.5,17.2-39.5,39
	s17.6,39,39.4,39h201.2"/>
<path id="XMLID_25_" class="st0" d="M439.4,402.3H60.9c-21.8,0-39.5,17.2-39.5,39s17.6,39,39.4,39h98.6"/>
<path id="XMLID_46_" class="st0" d="M130.1,562.7c-21.8,0-39.5,17.7-39.5,39.5c0,18.2,12.3,33.6,29,38.2"/>
<path id="XMLID_30_" class="st0" d="M1671.4,322.3h186.9c21.8,0,39.6,18.2,39.6,40s-17.6,40-39.4,40h-327.1"/>
<line id="XMLID_26_" class="st0" x1="431.4" y1="322.3" x2="467.4" y2="322.3"/>
<line id="XMLID_27_" class="st0" x1="505.4" y1="322.3" x2="619.4" y2="322.3"/>
<line id="XMLID_28_" class="st0" x1="898.4" y1="322.3" x2="1232.4" y2="322.3"/>
<line id="XMLID_29_" class="st0" x1="1270.4" y1="322.3" x2="1357.4" y2="322.3"/>
<line id="XMLID_31_" class="st0" x1="1630.4" y1="322.3" x2="1485.4" y2="322.3"/>
<line id="XMLID_33_" class="st0" x1="1412.4" y1="402.3" x2="1329.4" y2="402.3"/>
<line id="XMLID_34_" class="st0" x1="619.4" y1="402.3" x2="542.4" y2="402.3"/>
<circle id="XMLID_126_" class="st0" cx="981.6" cy="609.6" r="107.7"/>
<path id="XMLID_149_" class="st0" d="M1092.2,502.1"/>
<path id="XMLID_148_" class="st0" d="M1032.3,564.5c4.7,10.6,6.2,22.8,3.4,35.2l-9.3,40.5"/>
<path id="XMLID_147_" class="st0" d="M1032.3,564.5"/>
<path id="XMLID_146_" class="st0" d="M937.2,640.2l-9.4-40.4c-2.8-12.2-1.4-24.4,3.2-34.9"/>
<line id="XMLID_145_" class="st0" x1="927.8" y1="599.8" x2="953.8" y2="713.5"/>
<line id="XMLID_144_" class="st0" x1="1035.6" y1="599.8" x2="1009.7" y2="713.4"/>
<line id="XMLID_143_" class="st0" x1="932.4" y1="620.3" x2="1033.4" y2="620.3"/>
<path id="XMLID_142_" class="st0" d="M1060.9,536.4c17.8,19.2,28.7,44.9,28.7,73.2c0,59.5-48.2,107.7-107.7,107.7
	c-59.5,0-107.7-48.1-107.7-107.6c0-28.1,10.8-53.8,28.5-72.8l0,0l79,78.9L1060.9,536.4z"/>
<rect id="XMLID_141_" x="971.8" y="649.8" class="st0" width="20.3" height="32.9"/>
<line id="XMLID_32_" class="st0" x1="1446.4" y1="402.3" x2="1505.4" y2="402.3"/>
<line id="XMLID_35_" class="st0" x1="190.4" y1="480.3" x2="293.4" y2="480.3"/>
<rect id="XMLID_37_" x="293.7" y="221.9" transform="matrix(-0.9881 0.1535 -0.1535 -0.9881 639.4293 404.2235)" class="st0" width="20.8" height="9.8"/>
<line id="XMLID_39_" class="st0" x1="586.4" y1="483.3" x2="619.4" y2="483.3"/>
<line id="XMLID_40_" class="st0" x1="527.4" y1="483.3" x2="562.4" y2="483.3"/>
<line id="XMLID_41_" class="st0" x1="1345.4" y1="483.3" x2="1612.4" y2="483.3"/>
<path id="XMLID_42_" class="st0" d="M1802.4,483.3h80.6h4h14.8c21.8,0,39.6,18.2,39.6,40s-17.5,40-39.3,40h-165.7"/>
<line id="XMLID_43_" class="st0" x1="1705.4" y1="563.3" x2="1594.4" y2="563.3"/>
<line id="XMLID_47_" class="st0" x1="190.4" y1="563.3" x2="129.4" y2="563.3"/>
<line id="XMLID_49_" class="st0" x1="619.4" y1="563.3" x2="463.4" y2="563.3"/>
<line id="XMLID_44_" class="st0" x1="1572.4" y1="563.3" x2="1466.4" y2="563.3"/>
<path id="XMLID_48_" class="st0" d="M231.1,626.2c0.6-1.8,1-3.7,1-5.7c0-9.4-7.6-17-17-17c-2.2,0-4.3,0.4-6.2,1.2
	c-4-10.7-14.3-18.3-26.4-18.3c-13.8,0-25.3,10-27.7,23h-0.3c-13.9,0-25.1,11.5-25.1,25.4s11.4,25.4,25.4,25.4h75.3
	c9.4,0,17-7.6,17-17C247,634.1,240,626.8,231.1,626.2z"/>
<polygon id="XMLID_45_" class="st8" points="1439.4,568.1 1389.2,629.3 1416.1,629.3 1389.2,675.2 1453,615.2 1421.6,614.4 "/>
<line id="XMLID_51_" class="st0" x1="206.4" y1="563.3" x2="346.4" y2="563.3"/>
<line id="XMLID_64_" class="st0" x1="368.4" y1="563.3" x2="439.4" y2="563.3"/>
<line id="XMLID_79_" class="st0" x1="1586.4" y1="640.3" x2="1847.4" y2="640.3"/>
<line id="XMLID_68_" class="st0" x1="1454.4" y1="640.3" x2="1586.4" y2="640.3"/>
<line id="XMLID_69_" class="st0" x1="1335.4" y1="640.3" x2="1371.4" y2="640.3"/>
<line id="XMLID_66_" class="st0" x1="580.4" y1="640.3" x2="619.4" y2="640.3"/>
<path id="XMLID_65_" class="st0" d="M580,639.8"/>
<polyline id="XMLID_50_" class="st0" points="275.4,640.3 479.2,640.3 552.4,640.3 "/>
<line id="XMLID_80_" class="st0" x1="1124.4" y1="847.3" x2="1829.4" y2="847.3"/>
<line id="XMLID_67_" class="st0" x1="127.4" y1="847.3" x2="833.4" y2="847.3"/>
<line id="XMLID_71_" class="st0" x1="463.4" y1="402.3" x2="511.4" y2="402.3"/>
<line id="XMLID_72_" class="st8" x1="1335.4" y1="563.3" x2="1390.4" y2="563.3"/>
<rect id="XMLID_70_" x="1847.4" y="631.6" class="st8" width="39.2" height="16.4"/>
<line id="XMLID_74_" class="st8" x1="1887.4" y1="640.3" x2="1917.4" y2="640.3"/>
<rect id="XMLID_73_" x="1886.9" y="633.9" class="st1" width="13.2" height="11.7"/>
</svg>
