<?xml version="1.0" encoding="utf-8"?>
<!-- Generator: Adobe Illustrator 19.2.1, SVG Export Plug-In . SVG Version: 6.00 Build 0)  -->
<svg version="1.1" id="Layer_1" xmlns="http://www.w3.org/2000/svg" xmlns:xlink="http://www.w3.org/1999/xlink" x="0px" y="0px"
	 viewBox="0 0 171 54" style="enable-background:new 0 0 171 54;" xml:space="preserve">
<style type="text/css">
	.st0{fill:#FFFFFF;}
</style>
<g>
	<path class="st0" d="M12.3,32.4L6.4,7.6h7l0.9,4.6c0.8,3.5,2.1,11,2.1,11h0c0,0,1.1-5.2,2.4-10.4l1.3-5.2h6.2l1.5,5.7
		c1.1,4.4,2.5,9.8,2.5,9.8h0.1c0,0,1-5.9,2.1-11.2l0.9-4.4h6.9l-5.9,24.8h-7.4l-1.6-6.7c-1.1-4.3-1.9-8.4-1.9-8.4h0
		c0,0-0.8,3.2-2,8.2l-1.6,6.9H12.3z"/>
	<polygon class="st0" points="48.4,13.2 48.4,17 59.1,17 59.1,22.6 48.4,22.6 48.4,26.8 60.9,26.8 60.9,32.4 41.8,32.4 41.8,7.6 
		60.2,7.6 60.2,13.2 	"/>
	<path class="st0" d="M75.7,32.4L69.8,7.6h7l0.9,4.6c0.8,3.5,2.1,11,2.1,11h0c0,0,1.1-5.2,2.4-10.4l1.3-5.2h6.2l1.5,5.7
		c1.1,4.4,2.5,9.8,2.5,9.8h0.1c0,0,1-5.9,2.1-11.2l0.9-4.4h6.9l-5.9,24.8h-7.4l-1.6-6.7c-1.1-4.3-1.9-8.4-1.9-8.4h0
		c0,0-0.8,3.2-2,8.2L83,32.4H75.7z"/>
	<rect x="105.1" y="7.6" class="st0" width="6.7" height="24.8"/>
	<polygon class="st0" points="121.8,7.6 121.8,26.7 131.5,26.7 131.5,32.4 115.1,32.4 115.1,7.6 	"/>
	<polygon class="st0" points="140.3,7.6 140.3,26.7 150,26.7 150,32.4 133.5,32.4 133.5,7.6 	"/>
	<rect x="152.6" y="26.7" class="st0" width="5.5" height="5.7"/>
	<path class="st0" d="M160,45.7v-3.6c0-1.3-0.6-2-1.9-2c-0.6,0-1.4,0.3-1.7,1l-0.1-0.8h-0.8v5.5h0.9v-2.5c0-0.4,0-1,0.2-1.4
		c0.2-0.5,0.7-0.8,1.2-0.8c0.9,0,1.2,0.5,1.2,1.3v3.5H160z M154.6,41.1v-0.9c-0.1,0-0.3,0-0.4,0c-0.7,0-1.4,0.3-1.6,1l-0.1-1h-0.8
		v5.5h0.9v-2.4c0-0.6,0.1-1.3,0.5-1.8c0.2-0.2,0.6-0.4,1-0.4C154.2,41.1,154.4,41.1,154.6,41.1L154.6,41.1z M149.4,42.5h-2.9
		c0-0.8,0.5-1.6,1.5-1.6c0.5,0,0.9,0.2,1.1,0.5C149.2,41.6,149.4,42.1,149.4,42.5 M150.3,42.7c0-0.7-0.2-1.4-0.7-1.9
		c-0.4-0.4-1-0.7-1.7-0.7c-1,0-1.7,0.5-2.1,1.1c-0.3,0.5-0.4,1.1-0.4,1.8c0,0.8,0.2,1.5,0.7,2c0.4,0.5,1,0.8,1.8,0.8
		c0.5,0,1-0.2,1.4-0.4c0.4-0.3,0.8-0.8,0.8-1.4h-0.9c-0.1,0.3-0.2,0.4-0.3,0.6c-0.2,0.2-0.6,0.4-1,0.4c-0.4,0-0.8-0.1-1-0.4
		c-0.3-0.3-0.5-0.9-0.5-1.4h3.9L150.3,42.7z M144.8,45.6v-0.8c0,0-0.6,0.1-0.9,0.1c-0.5,0-0.7-0.2-0.7-0.7V41h1.6v-0.8h-1.6v-1.6
		l-0.9,0.2v1.4h-1.1V41h1.1v3.3c0,0.7,0.3,1.5,1.5,1.5C144.2,45.8,144.5,45.7,144.8,45.6 M140.5,44.1c0-0.8-0.6-1.4-1.4-1.5
		c-0.6-0.1-1-0.1-1.3-0.2c-0.5-0.1-0.7-0.3-0.7-0.7c0-0.3,0.2-0.6,0.6-0.7c0.3-0.1,0.4-0.1,0.6-0.1c0.4,0,0.7,0.1,0.9,0.3
		c0.2,0.1,0.3,0.4,0.3,0.7h0.9c0-0.4-0.2-0.8-0.4-1c-0.4-0.5-1-0.7-1.7-0.7c-0.7,0-1.3,0.2-1.6,0.6c-0.2,0.2-0.5,0.6-0.5,1.1
		c0,0.8,0.5,1.3,1.3,1.5l1.2,0.2c0.6,0.1,0.9,0.4,0.9,0.8c0,0.2-0.1,0.5-0.3,0.6c-0.3,0.2-0.6,0.3-1,0.3c-0.3,0-0.7-0.1-1-0.2
		c-0.3-0.2-0.4-0.5-0.4-0.9h-0.9c0,0.5,0.2,0.9,0.5,1.3c0.5,0.5,1.1,0.6,1.8,0.6c0.7,0,1.4-0.2,1.8-0.6
		C140.3,44.9,140.5,44.6,140.5,44.1 M134.1,42.5h-2.9c0-0.8,0.5-1.6,1.5-1.6c0.5,0,0.9,0.2,1.1,0.5C134,41.6,134.1,42.1,134.1,42.5
		 M135,42.7c0-0.7-0.2-1.4-0.7-1.9c-0.4-0.4-1-0.7-1.7-0.7c-1,0-1.7,0.5-2.1,1.1c-0.3,0.5-0.4,1.1-0.4,1.8c0,0.8,0.2,1.5,0.7,2
		c0.4,0.5,1,0.8,1.8,0.8c0.5,0,1-0.2,1.4-0.4c0.4-0.3,0.8-0.8,0.8-1.4H134c-0.1,0.3-0.2,0.4-0.3,0.6c-0.2,0.2-0.6,0.4-1,0.4
		c-0.4,0-0.8-0.1-1-0.4c-0.3-0.3-0.5-0.9-0.5-1.4h3.9L135,42.7z M129.5,40.2h-0.9l-1.1,4.1l-1.4-4.1h-0.8l-1.4,4.1l-1-4.1H122
		l1.4,5.5h0.9l1.5-4.2l1.4,4.2h0.9L129.5,40.2z M121,45.7v-3.6c0-1.3-0.7-2-1.9-2c-0.6,0-1.3,0.3-1.6,0.9v-3.1h-0.9v7.8h0.9v-2.5
		c0-0.4,0-1,0.2-1.4c0.2-0.5,0.7-0.8,1.2-0.8c0.9,0,1.2,0.5,1.2,1.3v3.5H121z M115.5,45.6v-0.8c0,0-0.6,0.1-0.9,0.1
		c-0.5,0-0.7-0.2-0.7-0.7V41h1.6v-0.8h-1.6v-1.6l-0.9,0.2v1.4h-1.1V41h1.1v3.3c0,0.7,0.3,1.5,1.5,1.5
		C114.9,45.8,115.3,45.7,115.5,45.6 M111.3,41.1v-0.9c-0.1,0-0.3,0-0.4,0c-0.7,0-1.4,0.3-1.6,1l-0.1-1h-0.8v5.5h0.9v-2.4
		c0-0.6,0.1-1.3,0.5-1.8c0.2-0.2,0.6-0.4,1-0.4C110.9,41.1,111.1,41.1,111.3,41.1L111.3,41.1z M106,42.9c0,0.6-0.1,1.3-0.5,1.7
		c-0.2,0.2-0.6,0.4-1,0.4c-0.4,0-0.8-0.2-1-0.4c-0.4-0.4-0.5-1.1-0.5-1.7c0-0.6,0.1-1.3,0.5-1.7c0.2-0.2,0.6-0.4,1-0.4
		c0.4,0,0.8,0.2,1,0.4C105.9,41.7,106,42.3,106,42.9 M107,42.9c0-0.9-0.2-1.7-0.8-2.2c-0.4-0.4-1-0.6-1.7-0.6
		c-0.7,0-1.3,0.2-1.7,0.6c-0.6,0.6-0.8,1.4-0.8,2.2c0,0.9,0.2,1.7,0.8,2.2c0.4,0.4,1,0.6,1.7,0.6c0.7,0,1.3-0.2,1.7-0.6
		C106.8,44.6,107,43.8,107,42.9 M100.7,45.7V38h-0.9v6.2L96,38h-1.1v7.7h0.9v-6.2l3.8,6.2H100.7z M91.6,41.1v-0.9
		c-0.1,0-0.3,0-0.4,0c-0.7,0-1.4,0.3-1.6,1l-0.1-1h-0.8v5.5h0.9v-2.4c0-0.6,0.1-1.3,0.5-1.8c0.2-0.2,0.6-0.4,1-0.4
		C91.2,41.1,91.4,41.1,91.6,41.1L91.6,41.1z M86.3,42.9c0,0.6-0.1,1.3-0.5,1.7c-0.2,0.2-0.6,0.4-1,0.4c-0.4,0-0.8-0.2-1-0.4
		c-0.4-0.4-0.5-1.1-0.5-1.7c0-0.6,0.1-1.3,0.5-1.7c0.2-0.2,0.6-0.4,1-0.4c0.4,0,0.8,0.2,1,0.4C86.2,41.7,86.3,42.3,86.3,42.9
		 M87.3,42.9c0-0.9-0.2-1.7-0.8-2.2c-0.4-0.4-1-0.6-1.7-0.6c-0.7,0-1.3,0.2-1.7,0.6c-0.6,0.6-0.8,1.4-0.8,2.2c0,0.9,0.2,1.7,0.8,2.2
		c0.4,0.4,1,0.6,1.7,0.6c0.7,0,1.3-0.2,1.7-0.6C87.1,44.6,87.3,43.8,87.3,42.9 M81.9,38.6v-0.8c-0.3-0.1-0.6-0.1-1-0.1
		c-1,0-1.6,0.6-1.6,1.5v1h-1V41h1v4.7h0.9V41h1.6v-0.8h-1.6v-0.9c0-0.4,0.3-0.7,0.8-0.7C81.4,38.5,81.6,38.6,81.9,38.6 M75,45.7
		v-3.6c0-1.3-0.6-2-1.9-2c-0.6,0-1.4,0.3-1.7,1l-0.1-0.8h-0.8v5.5h0.9v-2.5c0-0.4,0-1,0.2-1.4c0.2-0.5,0.7-0.8,1.2-0.8
		c0.9,0,1.2,0.5,1.2,1.3v3.5H75z M68.8,46.5c0,0.2-0.1,0.4-0.2,0.6c-0.3,0.3-1,0.4-1.5,0.4c-0.5,0-1.1,0-1.5-0.4
		c-0.1-0.1-0.2-0.3-0.2-0.6c0-0.4,0.3-0.7,0.7-0.9h1.3C68,45.6,68.8,45.7,68.8,46.5 M68.1,42c0,0.7-0.5,1.2-1.2,1.2
		c-0.8,0-1.2-0.5-1.2-1.2c0-0.7,0.5-1.2,1.2-1.2C67.7,40.8,68.1,41.3,68.1,42 M69.7,46.5c0-0.5-0.2-0.8-0.4-1.1
		c-0.4-0.4-1.2-0.6-1.8-0.6h-1.1c-0.3,0-0.8-0.1-0.8-0.5c0-0.3,0.3-0.4,0.5-0.5c0.3,0.1,0.6,0.2,0.9,0.2c0.7,0,1.3-0.3,1.6-0.6
		C68.8,43,69,42.5,69,42c0-0.5-0.1-0.8-0.4-1.1c0.1-0.3,0.3-0.5,0.7-0.5c0.1,0,0.2,0,0.2,0v-0.7c-0.1,0-0.2,0-0.3,0
		c-0.5,0-0.9,0.3-1.1,0.8c-0.3-0.2-0.7-0.3-1.3-0.3c-0.7,0-1.2,0.2-1.6,0.6C65,41,64.8,41.4,64.8,42c0,0.5,0.2,1.1,0.6,1.4
		c-0.4,0.2-0.7,0.6-0.7,1.1c0,0.4,0.3,0.8,0.6,0.9c-0.4,0.2-0.8,0.6-0.8,1.2c0,0.4,0.2,0.7,0.4,1c0.5,0.5,1.4,0.6,2.1,0.6
		c0.8,0,1.7-0.1,2.2-0.6C69.4,47.3,69.7,47,69.7,46.5 M63.3,40.2h-0.9v5.5h0.9V40.2z M63.3,37.9h-1.1V39h1.1V37.9z M59.7,43.4
		c0,0.5-0.1,0.9-0.5,1.2c-0.3,0.3-0.7,0.4-1.1,0.4c-0.8,0-1.1-0.5-1.1-0.9c0-0.7,0.7-1,1.2-1l1.5-0.1V43.4z M61.2,45.6V45
		c0,0-0.1,0-0.2,0c-0.2,0-0.3-0.1-0.3-0.4V42c0-0.3-0.1-0.6-0.2-0.8c-0.3-0.6-0.9-1-1.9-1c-0.7,0-1.3,0.2-1.7,0.6
		c-0.3,0.3-0.5,0.6-0.5,1.1h0.9c0-0.3,0.1-0.5,0.3-0.7c0.2-0.2,0.5-0.3,1-0.3c0.4,0,0.7,0.1,0.9,0.3c0.2,0.2,0.3,0.6,0.3,0.8v0.4
		L58,42.4c-1.5,0.1-1.9,1-1.9,1.7c0,0.8,0.6,1.7,1.9,1.7c0.8,0,1.5-0.3,1.8-0.9h0c0,0.5,0.3,0.8,0.8,0.8
		C60.8,45.8,61,45.7,61.2,45.6L61.2,45.6z M54.2,43c0,1-0.3,2.1-1.5,2.1c-0.4,0-0.7-0.2-0.9-0.4c-0.5-0.4-0.6-1.1-0.6-1.7
		s0.2-1.3,0.6-1.7c0.2-0.2,0.5-0.4,0.9-0.4C53.9,40.9,54.2,42,54.2,43 M55.1,42.9c0-0.9-0.3-1.7-0.8-2.3c-0.4-0.4-0.9-0.6-1.5-0.6
		c-0.6,0-1.3,0.3-1.6,0.9l-0.1-0.7h-0.8V48h0.9v-3c0.3,0.5,1,0.8,1.6,0.8c0.6,0,1.1-0.2,1.5-0.6C54.9,44.8,55.1,43.9,55.1,42.9
		 M48.7,45.7v-3.6c0-1.2-0.6-2-1.8-2c-0.7,0-1.4,0.4-1.7,1c-0.2-0.7-0.8-1-1.6-1c-0.6,0-1.2,0.3-1.5,0.9l-0.1-0.8h-0.8v5.5H42v-2.9
		c0-0.5,0.1-1,0.4-1.4c0.2-0.3,0.5-0.5,0.9-0.5c0.9,0,1.1,0.5,1.1,1.3v3.5h0.9v-2.9c0-0.6,0.1-1.1,0.5-1.5c0.2-0.2,0.5-0.4,0.8-0.4
		c0.9,0,1.1,0.5,1.1,1.3v3.5H48.7z M38.5,43.4c0,0.5-0.1,0.9-0.5,1.2c-0.3,0.3-0.7,0.4-1.1,0.4c-0.8,0-1.1-0.5-1.1-0.9
		c0-0.7,0.6-1,1.2-1l1.5-0.1V43.4z M39.9,45.6V45c0,0-0.1,0-0.2,0c-0.2,0-0.3-0.1-0.3-0.4V42c0-0.3-0.1-0.6-0.2-0.8
		c-0.3-0.6-0.9-1-1.9-1c-0.7,0-1.3,0.2-1.7,0.6c-0.3,0.3-0.5,0.6-0.5,1.1H36c0-0.3,0.1-0.5,0.3-0.7c0.2-0.2,0.5-0.3,1-0.3
		c0.4,0,0.7,0.1,0.9,0.3c0.2,0.2,0.3,0.6,0.3,0.8v0.4l-1.7,0.1c-1.5,0.1-1.9,1-1.9,1.7c0,0.8,0.6,1.7,1.9,1.7c0.8,0,1.5-0.3,1.8-0.9
		h0c0,0.5,0.3,0.8,0.8,0.8C39.5,45.8,39.7,45.7,39.9,45.6L39.9,45.6z M34,43.2h-1c0,0.4-0.2,0.8-0.4,1.1c-0.3,0.3-0.8,0.6-1.4,0.6
		c-0.5,0-1-0.2-1.4-0.6c-0.6-0.6-0.6-1.7-0.6-2.5c0-0.8,0-1.8,0.6-2.5c0.4-0.4,0.9-0.6,1.4-0.6c0.6,0,1.1,0.2,1.4,0.6
		c0.2,0.3,0.4,0.6,0.4,1.1h1c0-0.7-0.3-1.3-0.8-1.8c-0.5-0.5-1.2-0.8-2-0.8c-0.8,0-1.5,0.3-2.1,0.8c-0.8,0.8-1,1.9-1,3.2
		c0,1.2,0.1,2.4,1,3.2c0.6,0.5,1.3,0.8,2.1,0.8c0.8,0,1.6-0.4,2.1-0.8C33.7,44.6,33.9,44,34,43.2 M24,42.5h-2.9
		c0-0.8,0.5-1.6,1.5-1.6c0.5,0,0.9,0.2,1.1,0.5C23.9,41.6,24,42.1,24,42.5 M24.9,42.7c0-0.7-0.2-1.4-0.7-1.9c-0.4-0.4-1-0.7-1.7-0.7
		c-1,0-1.7,0.5-2.1,1.1c-0.3,0.5-0.4,1.1-0.4,1.8c0,0.8,0.2,1.5,0.7,2c0.4,0.5,1,0.8,1.8,0.8c0.5,0,1-0.2,1.4-0.4
		c0.4-0.3,0.8-0.8,0.8-1.4h-0.9c-0.1,0.3-0.2,0.4-0.3,0.6c-0.2,0.2-0.6,0.4-1,0.4c-0.4,0-0.8-0.1-1-0.4c-0.3-0.3-0.5-0.9-0.5-1.4
		h3.9L24.9,42.7z M18.8,45.7v-3.6c0-1.3-0.7-2-1.9-2c-0.6,0-1.3,0.3-1.6,0.9v-3.1h-0.9v7.8h0.9v-2.5c0-0.4,0-1,0.2-1.4
		c0.2-0.5,0.7-0.8,1.2-0.8c0.9,0,1.2,0.5,1.2,1.3v3.5H18.8z M13.4,38.9V38H7.9v0.9h2.3v6.8h1v-6.8H13.4z"/>
</g>
</svg>
